<?xml version="1.0" standalone="no"?>
<!DOCTYPE svg PUBLIC "-//W3C//DTD SVG 20010904//EN"
 "http://www.w3.org/TR/2001/REC-SVG-20010904/DTD/svg10.dtd">
<svg version="1.0" xmlns="http://www.w3.org/2000/svg"
 width="619.000000pt" height="619.000000pt" viewBox="0 0 619.000000 619.000000"
 preserveAspectRatio="xMidYMid meet">
<metadata>
Created by potrace 1.14, written by Peter Selinger 2001-2017
</metadata>
<g transform="translate(0.000000,619.000000) scale(0.100000,-0.100000)"
fill="#000000" stroke="none">
<path d="M3524 6015 c-4 -10 -20 -15 -45 -15 -21 0 -39 -4 -39 -10 0 -5 -20
-10 -45 -10 -26 0 -45 5 -45 11 0 11 -38 10 -250 -9 -123 -11 -178 -25 -213
-52 -40 -31 -115 -60 -158 -60 -28 0 -80 -20 -182 -69 -141 -68 -144 -70 -167
-118 -14 -32 -58 -84 -131 -155 -60 -59 -109 -114 -109 -122 0 -9 -4 -16 -10
-16 -5 0 -10 -6 -10 -14 0 -8 -6 -21 -13 -28 -19 -21 -37 -66 -37 -97 0 -25
-21 -61 -57 -99 -7 -7 -16 -25 -19 -40 -4 -15 -10 -31 -14 -37 -13 -17 -24
-273 -12 -287 5 -7 20 -50 32 -95 19 -73 22 -108 23 -352 2 -255 1 -271 -16
-271 -10 0 -15 -4 -12 -10 3 -5 -1 -10 -10 -10 -9 0 -13 -4 -10 -10 3 -5 2
-10 -3 -10 -22 0 -37 -134 -22 -194 10 -36 20 -129 24 -206 4 -77 16 -178 27
-225 12 -48 40 -115 48 -115 8 0 29 -48 33 -75 2 -11 5 -22 8 -25 3 -3 18 -25
34 -49 56 -86 92 -111 160 -111 52 0 54 -4 60 -100 2 -30 5 -55 6 -55 4 0 8
-114 10 -306 2 -221 -3 -249 -51 -283 -12 -8 -29 -26 -38 -39 -47 -72 -116
-173 -121 -177 -4 -3 -28 -32 -55 -65 -118 -147 -117 -147 -285 -210 -122 -46
-155 -61 -187 -82 -19 -13 -63 -37 -96 -53 -34 -17 -77 -39 -94 -51 -77 -49
-451 -202 -541 -220 -23 -5 -50 -13 -60 -18 -9 -5 -80 -30 -157 -55 -77 -26
-174 -62 -215 -80 -174 -78 -240 -106 -247 -106 -4 0 -54 -21 -110 -47 l-102
-48 -1 -502 c0 -276 3 -508 6 -517 6 -15 287 -16 3094 -16 l3088 0 -3 33 c-2
17 -6 79 -10 137 -3 57 -10 122 -16 145 -6 22 -30 150 -55 285 -24 135 -55
274 -68 310 -14 36 -27 84 -31 107 -8 51 -55 119 -126 181 -54 48 -194 119
-325 167 -37 13 -74 30 -83 37 -39 33 -186 87 -331 124 -36 9 -87 24 -115 34
-27 10 -77 26 -110 36 -33 9 -76 22 -95 29 -19 7 -69 18 -110 25 -41 6 -102
20 -135 30 -33 10 -114 26 -180 36 -129 18 -153 26 -202 62 l-32 23 2 132 1
132 40 42 c21 24 47 56 57 73 10 16 24 30 29 30 6 0 8 4 5 10 -3 5 1 10 9 10
9 0 15 3 14 7 -4 15 14 53 24 53 6 0 8 3 5 7 -4 3 0 15 10 25 9 10 12 18 7 18
-5 0 -4 4 3 8 6 4 13 14 15 22 2 8 8 20 13 27 6 7 15 18 21 25 5 7 11 15 12
18 14 45 25 70 32 70 4 0 20 27 36 60 15 33 33 60 38 60 5 0 7 3 3 6 -3 3 5
26 19 51 13 25 21 49 18 54 -3 5 -1 9 5 9 5 0 18 27 28 60 9 33 21 60 25 60 4
0 8 7 8 16 0 17 23 44 38 44 8 0 56 50 92 97 5 6 10 27 12 47 1 20 5 36 8 36
4 0 7 6 8 13 1 26 12 61 20 66 10 7 42 136 42 169 0 13 4 32 10 42 5 10 12 45
14 77 5 61 13 108 22 133 7 16 9 46 18 206 4 83 3 104 -9 114 -8 7 -15 23 -15
37 0 13 -6 26 -14 29 -25 10 -26 33 -7 122 39 179 51 262 51 353 0 115 23 272
44 304 9 14 16 38 16 54 0 17 7 52 16 78 9 26 17 79 18 118 0 38 5 73 11 77
32 23 -76 166 -185 241 -73 51 -78 60 -73 112 7 61 -21 96 -116 140 -40 19
-80 35 -87 35 -8 0 -11 6 -8 15 3 8 -4 26 -15 41 -23 29 -118 94 -137 94 -6 0
-28 11 -49 25 -20 14 -56 32 -79 40 -46 16 -116 20 -116 6 0 -5 -27 -9 -60 -8
-33 0 -60 4 -60 9 0 4 -7 8 -15 8 -8 0 -15 8 -15 19 0 18 -31 35 -59 31 -7 -1
-32 12 -55 28 -22 16 -44 30 -49 31 -27 3 -65 14 -79 22 -10 5 -24 9 -32 9 -8
0 -16 7 -20 15 -4 12 -25 15 -101 15 -76 0 -97 -3 -101 -15z"/>
</g>
</svg>
